<svg version="1.1" id="Layer_1" xmlns="http://www.w3.org/2000/svg" xmlns:xlink="http://www.w3.org/1999/xlink" x="0px" y="0px"
	 width="100%" viewBox="0 0 1080 1080" enable-background="new 0 0 1080 1080" xml:space="preserve">
<path fill="#000000" opacity="1.000000" stroke="none" 
	d="
M681.000000,1081.000000 
	C454.026123,1081.000000 227.552277,1081.000000 1.039205,1081.000000 
	C1.039205,721.067688 1.039205,361.135345 1.039205,1.101518 
	C360.890747,1.101518 720.781555,1.101518 1080.836182,1.101518 
	C1080.836182,360.999939 1080.836182,720.999939 1080.836182,1081.000000 
	C947.801575,1081.000000 814.650818,1081.000000 681.000000,1081.000000 
M582.978943,410.544342 
	C582.978943,410.544342 583.085571,410.939453 582.939392,411.809875 
	C583.382324,412.855072 583.834656,414.807037 584.266785,414.802582 
	C587.839661,414.765686 591.408691,414.366577 595.717773,413.608246 
	C595.717773,407.975647 595.717773,402.343018 595.717773,396.513428 
	C605.466858,400.607452 609.883484,400.107330 615.181885,394.238068 
	C620.969971,387.826355 621.289734,380.450500 618.215759,372.813385 
	C614.444885,363.445038 606.448853,360.967682 597.391418,365.996338 
	C596.963928,366.233673 595.884583,365.296906 594.582520,364.235443 
	C590.756409,364.507629 586.930298,364.779816 583.003357,365.945374 
	C583.023254,368.935303 583.043091,371.925262 582.888611,375.360779 
	C582.888611,375.360779 582.763916,375.822693 582.042114,376.325958 
	C581.986023,386.930267 581.911926,397.534607 581.916199,408.138885 
	C581.916504,408.811127 582.525879,409.483124 582.978943,410.544342 
M703.086548,397.795380 
	C707.289551,398.012543 711.492493,398.231995 715.697754,398.386505 
	C715.720154,398.387329 715.776062,397.473633 715.930298,396.058105 
	C715.952271,390.897949 715.871094,385.734619 716.027649,380.578552 
	C716.162659,376.131836 718.554871,373.749023 722.114136,375.198334 
	C723.906311,375.928070 725.666199,378.911072 725.846008,381.011719 
	C726.349060,386.886749 726.021057,392.832886 726.021057,398.564819 
	C730.764343,398.564819 734.680603,398.564819 738.956726,398.564819 
	C738.956726,391.238312 739.273682,384.249725 738.811157,377.313110 
	C738.606873,374.249115 737.471191,370.794983 735.628357,368.380585 
	C730.841736,362.109650 724.386230,361.722107 716.863770,366.152863 
	C715.770935,365.389618 714.899292,364.780884 713.130432,364.001648 
	C709.796509,364.347595 706.462585,364.693542 703.033691,365.968567 
	C703.078186,376.290924 703.122681,386.613312 703.086548,397.795380 
M742.005798,307.002930 
	C742.005798,307.002930 742.052734,306.959808 741.563354,306.252533 
	C737.671814,306.250610 733.780334,306.248688 729.210754,306.697418 
	C729.201172,320.770752 729.191650,334.844116 729.322754,349.716095 
	C733.293579,350.094971 737.261169,350.605560 741.238892,350.702881 
	C741.800049,350.716644 742.946106,348.695221 742.910278,347.646881 
	C742.698059,341.423462 742.217529,335.209167 741.916687,328.142303 
	C741.885742,326.434906 741.854797,324.727539 742.000183,322.141663 
	C741.941162,319.758850 741.882202,317.376007 741.909729,314.167847 
	C741.879211,312.786530 741.848755,311.405182 741.952332,309.501892 
	C741.907532,309.327972 741.862671,309.154022 741.929749,308.530151 
	C741.929749,308.530151 742.043701,308.080750 742.534302,307.918854 
	C742.369141,307.595734 742.203979,307.272614 742.005798,307.002930 
M491.087006,349.781830 
	C494.472443,350.196991 497.851959,350.671295 501.245148,351.008667 
	C503.973511,351.279938 505.101410,349.875397 505.043793,347.193146 
	C504.927490,341.775879 504.912964,336.356384 504.978882,330.193085 
	C506.940338,329.138123 508.901794,328.083160 510.863251,327.028168 
	C511.901215,329.018158 513.445496,330.910950 513.850830,333.022369 
	C514.374329,335.749390 513.976868,338.651245 513.994263,341.477692 
	C514.062134,352.501862 512.666077,350.633148 524.148865,350.960541 
	C526.911072,351.039307 528.074524,349.972534 528.019165,347.178497 
	C527.910522,341.693726 528.555603,336.128021 527.836731,330.736084 
	C526.613403,321.559967 524.932251,317.271362 516.703125,315.591949 
	C513.159241,314.868713 509.022125,317.052460 505.085083,317.010559 
	C505.131927,302.562408 505.041138,305.215149 494.916321,304.923370 
	C494.751434,304.918610 494.586121,304.931122 494.421051,304.929382 
	C491.568268,304.899750 490.585358,306.358154 491.037079,309.972107 
	C491.082977,322.954956 491.128845,335.937805 491.087006,349.781830 
M633.076538,317.293457 
	C633.009216,327.579468 632.922974,337.865448 632.919678,348.151459 
	C632.919495,348.792603 633.570068,349.433929 634.490601,350.701904 
	C637.309265,350.770172 640.131470,350.773712 642.945618,350.925385 
	C645.616333,351.069305 646.972046,350.088470 646.953064,347.238800 
	C646.891174,337.929077 647.007751,328.617218 646.825134,319.310699 
	C646.804260,318.249268 645.353882,316.349121 644.516724,316.321136 
	C640.975952,316.202820 637.416504,316.645416 633.076538,317.293457 
M794.630615,386.198761 
	C792.307251,386.135010 789.968018,385.881531 787.666199,386.074707 
	C786.147522,386.202209 784.682861,386.972198 783.193909,387.454529 
	C783.768066,389.092072 783.978882,391.005707 784.978027,392.320282 
	C789.804688,398.670715 797.281494,400.537323 805.803467,398.101440 
	C809.329163,397.093689 812.436035,395.774384 812.968750,391.756714 
	C814.193115,382.521667 813.037537,380.721344 804.441833,376.690887 
	C807.151855,376.690887 809.861877,376.690887 814.079224,376.690887 
	C812.700317,373.326355 812.015564,370.395935 810.439819,368.068909 
	C807.013062,363.008209 797.232971,361.384735 790.278503,365.275391 
	C786.164551,367.576874 783.840454,370.888977 784.064941,375.528809 
	C784.293335,380.249054 787.482483,382.669098 791.743774,384.002686 
	C793.239746,384.470825 794.628967,385.280243 795.688660,386.309448 
	C795.566895,386.438873 795.445190,386.568329 794.630615,386.198761 
M674.953613,382.153900 
	C674.967346,379.175415 674.990479,376.196899 674.993042,373.218414 
	C675.001282,363.625854 674.998352,363.625092 665.478699,363.968323 
	C664.652649,363.998077 663.704529,363.805664 663.033508,364.148224 
	C662.241821,364.552429 661.109741,365.438995 661.123596,366.095367 
	C661.270691,373.077850 661.616211,380.056152 662.020935,387.807343 
	C663.158081,396.430725 672.052185,401.462158 679.948120,397.982727 
	C681.194153,397.433716 683.573486,396.543610 683.669739,396.728271 
	C685.620667,400.470734 689.027649,398.431458 691.733093,398.904785 
	C696.388672,399.719238 698.356140,397.939575 698.098511,392.982910 
	C697.753113,386.339294 698.026306,379.663666 698.027649,373.001801 
	C698.029480,363.919098 698.026978,363.919128 689.127380,364.063568 
	C688.960876,364.066284 688.792053,364.087128 688.628113,364.067749 
	C685.230408,363.665924 683.756226,365.013000 683.932190,368.576904 
	C684.153809,373.062744 683.759705,377.582916 684.058411,382.059753 
	C684.290649,385.540619 682.955811,387.532104 679.665527,387.951691 
	C676.204590,388.393066 675.029236,386.119354 674.953613,382.153900 
M780.011841,359.060913 
	C780.823242,354.221710 778.760132,352.305450 773.965881,352.989502 
	C772.664001,353.175323 771.304749,353.112305 769.986206,352.997833 
	C766.887817,352.728851 765.839355,354.227936 765.972412,357.144958 
	C766.103638,360.022125 766.001038,362.909973 766.001038,364.643463 
	C761.504944,364.283539 757.465881,363.051636 753.871826,363.842468 
	C743.031189,366.227875 739.807922,379.201324 742.930359,387.464081 
	C746.415039,396.685059 752.860168,400.732941 760.261047,398.742706 
	C763.017700,398.001373 764.924377,397.130890 768.335022,398.567200 
	C776.376282,401.953552 780.170715,398.651154 780.106689,389.211670 
	C780.048340,379.444855 779.990051,369.678040 780.011841,359.060913 
M518.190247,364.201202 
	C518.088257,375.009735 517.972961,385.818237 517.927307,396.627014 
	C517.925232,397.116180 518.552673,397.608063 519.467468,398.729004 
	C523.540955,398.729004 527.614380,398.729004 532.009521,398.729004 
	C532.009521,392.707947 532.019714,387.235138 532.005432,381.762390 
	C531.997620,378.751282 531.600647,375.562500 535.880798,374.991638 
	C540.311462,374.400604 540.937134,377.930359 541.851624,380.776398 
	C542.387878,382.445526 542.077637,384.397522 542.087646,386.222595 
	C542.110046,390.326294 542.094666,394.430176 542.094666,398.928833 
	C544.946777,398.928833 547.095947,398.749939 549.204529,398.966522 
	C553.437439,399.401398 555.329712,397.944733 554.989319,393.410614 
	C554.654297,388.945618 554.942810,384.434845 554.931335,379.944183 
	C554.923157,376.737000 556.487976,374.427094 559.643738,375.213226 
	C561.362976,375.641449 563.358093,378.048798 563.780640,379.895050 
	C564.468140,382.898468 563.917786,386.174622 563.978210,389.334015 
	C564.188354,400.317261 562.466064,398.718384 574.018250,398.969879 
	C577.111450,399.037231 578.107605,397.727295 578.037415,394.795502 
	C577.910034,389.475983 578.437073,384.107697 577.901062,378.840149 
	C577.343872,373.364563 576.268982,367.942566 570.313721,365.021271 
	C563.195251,361.529297 557.508606,363.402588 552.524597,368.837158 
	C544.982666,362.167694 539.403687,361.545044 533.289734,365.774872 
	C531.453552,365.030121 530.281982,364.197632 529.068542,364.131348 
	C525.752625,363.950287 522.419128,364.092224 518.190247,364.201202 
M283.999298,356.334015 
	C287.185913,349.360291 286.206512,342.418762 283.280121,335.766724 
	C278.276062,324.391663 281.115479,319.692139 292.018707,313.177979 
	C295.822693,310.905243 299.896515,311.335693 303.829681,314.321686 
	C313.381317,321.573090 324.561310,324.109558 335.983978,321.402008 
	C348.936371,318.331848 358.144257,310.101807 363.385193,297.365997 
	C369.571289,282.333344 364.483490,264.105133 353.296539,254.921661 
	C339.812592,243.852539 324.470886,241.255554 308.645935,250.175873 
	C292.773560,259.122986 286.221252,274.436462 289.627319,292.524475 
	C290.146454,295.281281 290.434326,299.080872 288.984283,301.014954 
	C285.199371,306.063354 280.415588,310.368347 275.982635,314.923492 
	C272.815643,318.177734 268.739441,318.297119 264.598297,317.974121 
	C261.005341,317.693848 257.418335,317.333923 253.830811,316.987213 
	C236.667313,315.328705 220.482132,336.215759 224.993927,353.140106 
	C227.914764,364.096436 234.222549,372.069397 245.108185,375.933563 
	C252.746109,378.644867 260.264191,378.203918 267.670868,374.813202 
	C271.022797,373.278809 274.304596,373.225647 276.990051,376.435211 
	C279.396667,379.311523 282.070099,381.973297 284.365417,384.931763 
	C287.263824,388.667542 289.478333,391.965698 288.296356,397.821045 
	C284.934631,414.474823 300.162842,424.060394 311.351685,421.252167 
	C322.459778,418.464233 328.694641,406.608521 326.844299,398.509918 
	C324.139343,386.670868 312.077789,379.336792 301.057190,383.670013 
	C295.390289,385.898193 293.369476,382.925110 290.531830,379.984100 
	C289.201172,378.604889 287.901031,377.095367 287.000793,375.422302 
	C285.009247,371.721222 279.734406,369.664429 281.070557,364.342285 
	C281.692566,361.864655 282.974884,359.552795 283.999298,356.334015 
M297.768372,430.944427 
	C296.425507,430.062714 295.112671,429.130768 293.734924,428.307465 
	C285.228546,423.224457 277.162201,417.542236 271.652374,409.122955 
	C266.155853,400.723938 261.103729,392.034058 255.655930,383.143951 
	C249.662048,382.838806 248.224411,384.211334 250.087128,389.211975 
	C250.810532,391.153992 251.595535,393.081299 252.487152,394.951111 
	C261.390411,413.622375 274.663666,428.233917 293.027618,437.935577 
	C297.562988,440.331604 302.438965,442.114563 307.238068,443.973450 
	C318.348602,448.276978 330.006134,446.836029 341.496063,446.953918 
	C345.431122,446.994263 349.462524,446.974762 353.292908,446.203247 
	C366.476288,443.547821 378.358032,437.890839 389.230103,429.971771 
	C400.050629,422.090210 408.423401,412.037659 414.743652,400.427490 
	C423.817505,383.759125 427.150726,365.784576 424.969391,346.883636 
	C424.605957,343.734467 423.892212,340.609283 423.127838,337.525665 
	C419.728973,323.813629 413.718689,311.288818 404.709595,300.449799 
	C396.777069,290.906036 387.323700,282.974426 376.005951,277.575562 
	C372.831177,276.061096 370.264038,277.210724 371.202667,280.883392 
	C371.828522,283.332062 373.881989,286.134796 376.084473,287.344757 
	C390.276520,295.141510 400.711792,306.529572 407.846252,320.768188 
	C414.638275,334.323364 418.227051,348.812866 415.919617,364.115845 
	C414.716644,372.094116 413.764954,380.381134 410.805542,387.770020 
	C403.550537,405.883759 391.516144,420.190979 373.963928,429.582733 
	C361.782104,436.100861 348.674927,439.520935 335.174103,439.696472 
	C322.515961,439.860992 310.007843,437.035736 297.768372,430.944427 
M371.302002,353.786102 
	C371.201904,349.300354 371.117462,344.814148 370.997498,340.328949 
	C370.865417,335.390259 366.679840,331.979767 360.823395,332.006165 
	C355.034790,332.032257 352.058044,334.759674 352.017303,340.115906 
	C351.989410,343.780975 352.048126,347.447083 351.989929,351.111481 
	C351.930023,354.884552 349.943817,356.894440 346.175110,356.977875 
	C342.678101,357.055328 339.175262,356.911713 335.680145,357.024292 
	C328.662140,357.250366 324.872070,362.405426 326.713989,370.312042 
	C327.690430,374.503601 330.094727,376.369324 334.460541,376.034729 
	C337.607391,375.793579 340.790558,375.907471 343.952667,376.011505 
	C349.168549,376.183075 351.981323,379.142365 352.003632,384.333771 
	C352.017242,387.499207 351.997345,390.664734 352.011292,393.830139 
	C352.033813,398.945679 354.958374,401.851440 360.233612,402.020386 
	C367.328369,402.247559 370.751129,399.813385 370.970825,394.206665 
	C371.107697,390.713135 370.880981,387.204193 371.049713,383.713379 
	C371.212708,380.341125 371.869843,377.172394 376.265625,376.900574 
	C380.347809,376.648132 384.446594,375.885071 388.496704,376.105896 
	C392.811279,376.341034 395.097961,374.498413 395.935486,370.648285 
	C397.146179,365.082794 395.285706,359.195709 391.582214,358.410645 
	C386.835968,357.404541 381.846161,357.605042 377.016479,356.904938 
	C375.225861,356.645386 373.591461,355.307922 371.302002,353.786102 
M628.953552,338.538544 
	C628.898621,336.543701 629.168030,334.473663 628.726440,332.568451 
	C627.522766,327.375122 628.781189,321.163635 622.624695,317.930878 
	C613.945312,313.373444 609.763367,314.804932 603.438232,320.743591 
	C594.924316,313.912415 590.874573,313.704926 583.628174,318.467041 
	C579.605469,314.083008 574.756958,316.931183 570.350708,316.041534 
	C570.350708,327.959869 570.350708,339.200073 570.350708,350.508362 
	C574.672363,350.508362 578.685913,350.508362 582.949524,350.508362 
	C582.949524,344.081543 582.982117,338.098267 582.936340,332.115601 
	C582.912109,328.955414 584.135681,326.981110 587.527893,327.017090 
	C590.919006,327.053009 592.049194,329.042175 591.997559,332.207184 
	C591.916199,337.196320 591.811157,342.201599 592.152100,347.170105 
	C592.242004,348.481598 593.807434,350.618774 594.907166,350.763123 
	C598.439209,351.226807 602.070374,350.935608 606.010193,350.935608 
	C606.010193,344.121674 605.701172,337.964233 606.207031,331.874481 
	C606.350342,330.148285 608.628052,327.643250 610.354736,327.213196 
	C613.493408,326.431427 615.086548,328.655579 615.030334,331.933685 
	C614.959045,336.091644 615.001587,340.251617 615.005615,344.410736 
	C615.011902,350.904724 615.015686,350.904724 621.596558,350.908905 
	C628.939636,350.913544 628.939880,350.913544 628.951904,343.498413 
	C628.954041,342.167480 628.953308,340.836517 628.953552,338.538544 
M481.377625,334.017609 
	C477.585968,334.090759 473.886444,333.306641 470.791809,337.216797 
	C469.640167,338.671967 465.266418,338.525055 462.763062,337.773163 
	C456.800903,335.982452 456.896332,327.566467 459.400665,323.067413 
	C461.683563,318.966095 467.216797,316.901031 470.058929,320.201355 
	C475.132507,326.092896 481.033997,323.328766 486.867859,323.947906 
	C484.816101,312.995697 474.789368,304.704285 465.274811,306.139862 
	C450.030548,308.439880 444.151245,317.388824 444.234863,329.492065 
	C444.324341,342.442688 452.413269,349.923370 462.996887,350.832550 
	C476.574158,351.998932 485.293091,345.593262 486.719086,334.217377 
	C485.230774,334.151855 483.762329,334.087219 481.377625,334.017609 
M464.843201,356.361694 
	C461.688782,355.605560 458.421936,353.894592 455.398468,354.250610 
	C437.777283,356.325500 431.053833,367.757355 434.744354,384.025696 
	C437.486481,396.113495 449.976501,401.911377 462.369476,398.163422 
	C470.386475,395.738892 475.993378,388.996185 475.463379,381.442230 
	C470.968597,382.106018 465.915588,381.679169 462.228729,383.720184 
	C458.391144,385.844543 455.341614,388.168701 451.157288,385.570770 
	C447.374176,383.221985 446.243439,378.490753 447.910614,373.333252 
	C449.970886,366.959656 455.456543,364.271423 459.610931,368.550720 
	C464.732086,373.825897 470.280090,371.233948 475.768646,372.003387 
	C475.592041,364.822388 472.181976,359.997070 464.843201,356.361694 
M689.405518,343.930634 
	C693.591675,350.688232 700.476135,352.880341 707.617371,349.746124 
	C708.635620,349.299225 710.452148,348.381378 710.612061,348.604401 
	C714.307068,353.757751 719.255371,349.527740 724.012817,351.303986 
	C724.012817,344.847107 724.012878,339.240692 724.012878,333.634277 
	C724.012878,327.881226 724.012817,322.128204 724.012817,315.620056 
	C718.976562,317.378174 713.895630,313.550903 710.132019,318.395630 
	C701.963684,312.264435 694.083679,315.787842 690.182129,321.414917 
	C685.367554,328.358856 684.921753,335.775970 689.405518,343.930634 
M553.110535,338.131378 
	C547.812988,341.305450 545.819824,340.916077 544.165344,335.971497 
	C551.386353,335.971497 558.470520,335.971497 565.459595,335.971497 
	C567.616577,324.584106 561.042969,316.046082 549.996216,315.246887 
	C539.789612,314.508392 532.358337,319.737396 531.074097,330.645630 
	C529.513428,343.902283 537.491089,350.352234 545.983093,350.929871 
	C556.901855,351.672516 564.322876,346.494232 564.447449,338.078094 
	C560.962585,338.078094 557.479431,338.078094 553.110535,338.131378 
M509.436951,368.004272 
	C502.133514,361.984161 493.921295,361.365967 486.424164,366.271912 
	C480.377014,370.228973 477.227356,379.467163 479.402435,386.867218 
	C481.213135,393.027588 487.462097,398.428589 493.384827,398.952362 
	C503.526001,399.849152 510.494568,396.457214 513.963745,389.030518 
	C517.039001,382.447144 515.483032,372.759644 509.436951,368.004272 
M656.545593,389.726654 
	C660.097656,378.483948 658.067261,370.397217 648.546753,365.285278 
	C640.166016,360.785309 628.329895,363.952423 624.112915,371.932007 
	C619.875854,379.949677 621.198975,391.344147 628.961609,395.965424 
	C638.885071,401.873077 650.469238,399.455627 656.545593,389.726654 
M652.028748,341.296295 
	C657.064148,350.877075 663.618958,351.706512 671.567993,350.846771 
	C677.261047,350.231018 683.864502,345.078979 684.607483,336.659576 
	C678.212830,335.232422 672.151184,335.123871 667.177063,340.217896 
	C663.933228,337.347748 662.688599,331.383087 664.943604,328.574402 
	C665.755066,327.563782 668.852966,326.817291 669.330383,327.353790 
	C674.031494,332.635986 679.640137,328.825165 685.134766,330.052368 
	C683.222778,321.072449 678.045654,316.293976 670.092773,315.239502 
	C663.604309,314.379211 657.473694,316.563751 653.636230,322.095856 
	C649.766479,327.674591 647.812134,333.937164 652.028748,341.296295 
M260.856506,306.591919 
	C261.057190,308.309601 261.257843,310.027313 261.458496,311.744995 
	C263.928497,311.347961 267.220734,311.815125 268.715424,310.393005 
	C273.330292,306.002258 277.049225,300.684875 281.517914,296.120819 
	C285.485107,292.068909 285.045074,288.437622 279.150269,285.862640 
	C273.169464,292.416779 267.053802,299.118744 260.856506,306.591919 
M647.592346,308.874268 
	C646.603821,306.576263 646.087036,303.859589 644.510498,302.083527 
	C642.420959,299.729492 639.422058,299.247711 636.474670,301.229401 
	C633.743896,303.065369 631.920715,305.688690 633.199951,308.749664 
	C634.067627,310.826172 636.265564,313.096985 638.348877,313.750916 
	C642.081299,314.922485 645.545471,313.695129 647.592346,308.874268 
z"/>
<path fill="#78CCD2" opacity="1.000000" stroke="none" 
	d="
M283.978577,356.749908 
	C282.974884,359.552795 281.692566,361.864655 281.070557,364.342285 
	C279.734406,369.664429 285.009247,371.721222 287.000793,375.422302 
	C287.901031,377.095367 289.201172,378.604889 290.531830,379.984100 
	C293.369476,382.925110 295.390289,385.898193 301.057190,383.670013 
	C312.077789,379.336792 324.139343,386.670868 326.844299,398.509918 
	C328.694641,406.608521 322.459778,418.464233 311.351685,421.252167 
	C300.162842,424.060394 284.934631,414.474823 288.296356,397.821045 
	C289.478333,391.965698 287.263824,388.667542 284.365417,384.931763 
	C282.070099,381.973297 279.396667,379.311523 276.990051,376.435211 
	C274.304596,373.225647 271.022797,373.278809 267.670868,374.813202 
	C260.264191,378.203918 252.746109,378.644867 245.108185,375.933563 
	C234.222549,372.069397 227.914764,364.096436 224.993927,353.140106 
	C220.482132,336.215759 236.667313,315.328705 253.830811,316.987213 
	C257.418335,317.333923 261.005341,317.693848 264.598297,317.974121 
	C268.739441,318.297119 272.815643,318.177734 275.982635,314.923492 
	C280.415588,310.368347 285.199371,306.063354 288.984283,301.014954 
	C290.434326,299.080872 290.146454,295.281281 289.627319,292.524475 
	C286.221252,274.436462 292.773560,259.122986 308.645935,250.175873 
	C324.470886,241.255554 339.812592,243.852539 353.296539,254.921661 
	C364.483490,264.105133 369.571289,282.333344 363.385193,297.365997 
	C358.144257,310.101807 348.936371,318.331848 335.983978,321.402008 
	C324.561310,324.109558 313.381317,321.573090 303.829681,314.321686 
	C299.896515,311.335693 295.822693,310.905243 292.018707,313.177979 
	C281.115479,319.692139 278.276062,324.391663 283.280121,335.766724 
	C286.206512,342.418762 287.185913,349.360291 283.978577,356.749908 
M318.622314,278.998901 
	C319.670929,278.652496 320.709900,278.043579 321.769836,278.004486 
	C326.782288,277.819550 329.027405,274.400665 329.874969,270.315430 
	C330.836578,265.680542 328.649689,261.632507 325.091064,258.747528 
	C321.915131,256.172791 313.093506,257.619141 311.106018,260.625305 
	C306.175568,268.082855 309.005920,275.837677 318.622314,278.998901 
M246.990692,341.385590 
	C248.817261,338.382568 248.867798,334.965576 245.937363,333.314850 
	C243.823669,332.124146 240.178482,332.094635 237.902283,333.100067 
	C234.106430,334.776764 234.012131,338.491089 236.026932,341.827881 
	C238.165466,345.369568 242.899979,345.411743 246.990692,341.385590 
M310.525482,388.103577 
	C308.694580,388.664459 306.584381,388.865845 305.170959,389.964081 
	C304.609558,390.400330 305.099121,393.380371 306.009857,394.188904 
	C306.941223,395.015778 310.208099,395.006317 310.321381,394.661957 
	C310.942596,392.773285 310.909241,390.669281 310.525482,388.103577 
z"/>
<path fill="#BAD164" opacity="1.000000" stroke="none" 
	d="
M298.154297,430.973907 
	C310.007843,437.035736 322.515961,439.860992 335.174103,439.696472 
	C348.674927,439.520935 361.782104,436.100861 373.963928,429.582733 
	C391.516144,420.190979 403.550537,405.883759 410.805542,387.770020 
	C413.764954,380.381134 414.716644,372.094116 415.919617,364.115845 
	C418.227051,348.812866 414.638275,334.323364 407.846252,320.768188 
	C400.711792,306.529572 390.276520,295.141510 376.084473,287.344757 
	C373.881989,286.134796 371.828522,283.332062 371.202667,280.883392 
	C370.264038,277.210724 372.831177,276.061096 376.005951,277.575562 
	C387.323700,282.974426 396.777069,290.906036 404.709595,300.449799 
	C413.718689,311.288818 419.728973,323.813629 423.127838,337.525665 
	C423.892212,340.609283 424.605957,343.734467 424.969391,346.883636 
	C427.150726,365.784576 423.817505,383.759125 414.743652,400.427490 
	C408.423401,412.037659 400.050629,422.090210 389.230103,429.971771 
	C378.358032,437.890839 366.476288,443.547821 353.292908,446.203247 
	C349.462524,446.974762 345.431122,446.994263 341.496063,446.953918 
	C330.006134,446.836029 318.348602,448.276978 307.238068,443.973450 
	C302.438965,442.114563 297.562988,440.331604 293.027618,437.935577 
	C274.663666,428.233917 261.390411,413.622375 252.487152,394.951111 
	C251.595535,393.081299 250.810532,391.153992 250.087128,389.211975 
	C248.224411,384.211334 249.662048,382.838806 255.655930,383.143951 
	C261.103729,392.034058 266.155853,400.723938 271.652374,409.122955 
	C277.162201,417.542236 285.228546,423.224457 293.734924,428.307465 
	C295.112671,429.130768 296.425507,430.062714 298.154297,430.973907 
z"/>
<path fill="#BAD164" opacity="1.000000" stroke="none" 
	d="
M371.593933,354.124084 
	C373.591461,355.307922 375.225861,356.645386 377.016479,356.904938 
	C381.846161,357.605042 386.835968,357.404541 391.582214,358.410645 
	C395.285706,359.195709 397.146179,365.082794 395.935486,370.648285 
	C395.097961,374.498413 392.811279,376.341034 388.496704,376.105896 
	C384.446594,375.885071 380.347809,376.648132 376.265625,376.900574 
	C371.869843,377.172394 371.212708,380.341125 371.049713,383.713379 
	C370.880981,387.204193 371.107697,390.713135 370.970825,394.206665 
	C370.751129,399.813385 367.328369,402.247559 360.233612,402.020386 
	C354.958374,401.851440 352.033813,398.945679 352.011292,393.830139 
	C351.997345,390.664734 352.017242,387.499207 352.003632,384.333771 
	C351.981323,379.142365 349.168549,376.183075 343.952667,376.011505 
	C340.790558,375.907471 337.607391,375.793579 334.460541,376.034729 
	C330.094727,376.369324 327.690430,374.503601 326.713989,370.312042 
	C324.872070,362.405426 328.662140,357.250366 335.680145,357.024292 
	C339.175262,356.911713 342.678101,357.055328 346.175110,356.977875 
	C349.943817,356.894440 351.930023,354.884552 351.989929,351.111481 
	C352.048126,347.447083 351.989410,343.780975 352.017303,340.115906 
	C352.058044,334.759674 355.034790,332.032257 360.823395,332.006165 
	C366.679840,331.979767 370.865417,335.390259 370.997498,340.328949 
	C371.117462,344.814148 371.201904,349.300354 371.593933,354.124084 
z"/>
<path fill="#5121F0" opacity="1.000000" stroke="none" 
	d="
M628.953735,339.022064 
	C628.953308,340.836517 628.954041,342.167480 628.951904,343.498413 
	C628.939880,350.913544 628.939636,350.913544 621.596558,350.908905 
	C615.015686,350.904724 615.011902,350.904724 615.005615,344.410736 
	C615.001587,340.251617 614.959045,336.091644 615.030334,331.933685 
	C615.086548,328.655579 613.493408,326.431427 610.354736,327.213196 
	C608.628052,327.643250 606.350342,330.148285 606.207031,331.874481 
	C605.701172,337.964233 606.010193,344.121674 606.010193,350.935608 
	C602.070374,350.935608 598.439209,351.226807 594.907166,350.763123 
	C593.807434,350.618774 592.242004,348.481598 592.152100,347.170105 
	C591.811157,342.201599 591.916199,337.196320 591.997559,332.207184 
	C592.049194,329.042175 590.919006,327.053009 587.527893,327.017090 
	C584.135681,326.981110 582.912109,328.955414 582.936340,332.115601 
	C582.982117,338.098267 582.949524,344.081543 582.949524,350.508362 
	C578.685913,350.508362 574.672363,350.508362 570.350708,350.508362 
	C570.350708,339.200073 570.350708,327.959869 570.350708,316.041534 
	C574.756958,316.931183 579.605469,314.083008 583.628174,318.467041 
	C590.874573,313.704926 594.924316,313.912415 603.438232,320.743591 
	C609.763367,314.804932 613.945312,313.373444 622.624695,317.930878 
	C628.781189,321.163635 627.522766,327.375122 628.726440,332.568451 
	C629.168030,334.473663 628.898621,336.543701 628.953735,339.022064 
z"/>
<path fill="#5121F0" opacity="1.000000" stroke="none" 
	d="
M519.092590,364.106232 
	C522.419128,364.092224 525.752625,363.950287 529.068542,364.131348 
	C530.281982,364.197632 531.453552,365.030121 533.289734,365.774872 
	C539.403687,361.545044 544.982666,362.167694 552.524597,368.837158 
	C557.508606,363.402588 563.195251,361.529297 570.313721,365.021271 
	C576.268982,367.942566 577.343872,373.364563 577.901062,378.840149 
	C578.437073,384.107697 577.910034,389.475983 578.037415,394.795502 
	C578.107605,397.727295 577.111450,399.037231 574.018250,398.969879 
	C562.466064,398.718384 564.188354,400.317261 563.978210,389.334015 
	C563.917786,386.174622 564.468140,382.898468 563.780640,379.895050 
	C563.358093,378.048798 561.362976,375.641449 559.643738,375.213226 
	C556.487976,374.427094 554.923157,376.737000 554.931335,379.944183 
	C554.942810,384.434845 554.654297,388.945618 554.989319,393.410614 
	C555.329712,397.944733 553.437439,399.401398 549.204529,398.966522 
	C547.095947,398.749939 544.946777,398.928833 542.094666,398.928833 
	C542.094666,394.430176 542.110046,390.326294 542.087646,386.222595 
	C542.077637,384.397522 542.387878,382.445526 541.851624,380.776398 
	C540.937134,377.930359 540.311462,374.400604 535.880798,374.991638 
	C531.600647,375.562500 531.997620,378.751282 532.005432,381.762390 
	C532.019714,387.235138 532.009521,392.707947 532.009521,398.729004 
	C527.614380,398.729004 523.540955,398.729004 519.275574,397.947571 
	C519.086670,386.146179 519.089600,375.126221 519.092590,364.106232 
z"/>
<path fill="#5121F0" opacity="1.000000" stroke="none" 
	d="
M779.874268,390.145905 
	C780.170715,398.651154 776.376282,401.953552 768.335022,398.567200 
	C764.924377,397.130890 763.017700,398.001373 760.261047,398.742706 
	C752.860168,400.732941 746.415039,396.685059 742.930359,387.464081 
	C739.807922,379.201324 743.031189,366.227875 753.871826,363.842468 
	C757.465881,363.051636 761.504944,364.283539 766.001038,364.643463 
	C766.001038,362.909973 766.103638,360.022125 765.972412,357.144958 
	C765.839355,354.227936 766.887817,352.728851 769.986206,352.997833 
	C771.304749,353.112305 772.664001,353.175323 773.965881,352.989502 
	C778.760132,352.305450 780.823242,354.221710 779.590637,359.708710 
	C779.058105,369.103760 778.906189,377.850922 778.883789,386.598389 
	C778.880737,387.780029 779.528015,388.963348 779.874268,390.145905 
M764.903625,376.739716 
	C762.400452,376.525238 758.397888,375.291992 757.706970,376.308868 
	C756.278992,378.410492 755.960022,381.850708 756.517456,384.455109 
	C756.773438,385.651276 760.184204,386.884338 762.144287,386.852783 
	C766.012634,386.790466 766.955627,383.410553 764.903625,376.739716 
z"/>
<path fill="#5121F0" opacity="1.000000" stroke="none" 
	d="
M481.835754,334.020111 
	C483.762329,334.087219 485.230774,334.151855 486.719086,334.217377 
	C485.293091,345.593262 476.574158,351.998932 462.996887,350.832550 
	C452.413269,349.923370 444.324341,342.442688 444.234863,329.492065 
	C444.151245,317.388824 450.030548,308.439880 465.274811,306.139862 
	C474.789368,304.704285 484.816101,312.995697 486.867859,323.947906 
	C481.033997,323.328766 475.132507,326.092896 470.058929,320.201355 
	C467.216797,316.901031 461.683563,318.966095 459.400665,323.067413 
	C456.896332,327.566467 456.800903,335.982452 462.763062,337.773163 
	C465.266418,338.525055 469.640167,338.671967 470.791809,337.216797 
	C473.886444,333.306641 477.585968,334.090759 481.835754,334.020111 
z"/>
<path fill="#5220F3" opacity="1.000000" stroke="none" 
	d="
M595.108765,364.906921 
	C595.884583,365.296906 596.963928,366.233673 597.391418,365.996338 
	C606.448853,360.967682 614.444885,363.445038 618.215759,372.813385 
	C621.289734,380.450500 620.969971,387.826355 615.181885,394.238068 
	C609.883484,400.107330 605.466858,400.607452 595.717773,396.513428 
	C595.717773,402.343018 595.717773,407.975647 595.054199,413.557251 
	C593.424500,413.325928 592.420837,412.879181 591.498596,413.009369 
	C586.238342,413.752045 584.614990,411.628662 584.816162,406.350342 
	C585.213928,395.913544 584.903320,385.450287 584.912354,374.997986 
	C584.922363,363.336945 584.087036,365.167786 595.108765,364.906921 
M596.310852,378.161469 
	C596.009521,381.506348 594.541870,385.610260 599.229553,386.764465 
	C601.109131,387.227295 605.280884,385.636078 605.399292,384.626556 
	C605.744690,381.683441 605.463379,377.825043 603.730591,375.727386 
	C602.142883,373.805359 598.565308,374.488220 596.310852,378.161469 
z"/>
<path fill="#5121F0" opacity="1.000000" stroke="none" 
	d="
M465.143311,356.617462 
	C472.181976,359.997070 475.592041,364.822388 475.768646,372.003387 
	C470.280090,371.233948 464.732086,373.825897 459.610931,368.550720 
	C455.456543,364.271423 449.970886,366.959656 447.910614,373.333252 
	C446.243439,378.490753 447.374176,383.221985 451.157288,385.570770 
	C455.341614,388.168701 458.391144,385.844543 462.228729,383.720184 
	C465.915588,381.679169 470.968597,382.106018 475.463379,381.442230 
	C475.993378,388.996185 470.386475,395.738892 462.369476,398.163422 
	C449.976501,401.911377 437.486481,396.113495 434.744354,384.025696 
	C431.053833,367.757355 437.777283,356.325500 455.398468,354.250610 
	C458.421936,353.894592 461.688782,355.605560 465.143311,356.617462 
z"/>
<path fill="#5121F0" opacity="1.000000" stroke="none" 
	d="
M689.151855,343.637115 
	C684.921753,335.775970 685.367554,328.358856 690.182129,321.414917 
	C694.083679,315.787842 701.963684,312.264435 710.131714,318.393463 
	C713.895630,313.550903 718.976562,317.378174 724.012817,315.620056 
	C724.012817,322.128204 724.012878,327.881226 724.012878,333.634277 
	C724.012878,339.240692 724.012817,344.847107 724.012817,351.303986 
	C719.255371,349.527740 714.307068,353.757751 710.612061,348.604401 
	C710.452148,348.381378 708.635620,349.299225 707.617371,349.746124 
	C700.476135,352.880341 693.591675,350.688232 689.151855,343.637115 
M700.002625,333.552460 
	C699.706604,336.385468 700.632996,338.308716 703.654358,339.023651 
	C707.781921,340.000366 710.245422,337.770477 710.664551,334.315308 
	C711.010071,331.466492 710.402161,327.690704 706.447876,327.094116 
	C702.488037,326.496704 700.296021,328.706726 700.002625,333.552460 
z"/>
<path fill="#5220F3" opacity="1.000000" stroke="none" 
	d="
M505.154541,317.915588 
	C509.022125,317.052460 513.159241,314.868713 516.703125,315.591949 
	C524.932251,317.271362 526.613403,321.559967 527.836731,330.736084 
	C528.555603,336.128021 527.910522,341.693726 528.019165,347.178497 
	C528.074524,349.972534 526.911072,351.039307 524.148865,350.960541 
	C512.666077,350.633148 514.062134,352.501862 513.994263,341.477692 
	C513.976868,338.651245 514.374329,335.749390 513.850830,333.022369 
	C513.445496,330.910950 511.901215,329.018158 510.863251,327.028198 
	C508.901794,328.083160 506.940338,329.138123 504.706696,330.403320 
	C504.140350,330.475830 503.854309,330.310730 503.546356,330.219818 
	C503.470001,330.197266 503.224213,330.413208 503.222076,330.522736 
	C503.127930,335.341278 502.892578,340.164490 503.023529,344.977631 
	C503.135284,349.085510 500.518311,348.899231 497.725708,348.967468 
	C494.864624,349.037354 492.931946,348.564301 492.973145,344.964569 
	C493.102814,333.637939 493.093750,322.308014 492.971222,310.981201 
	C492.932495,307.403534 494.870728,306.907562 497.737549,306.953888 
	C500.560608,306.999512 503.220856,306.877930 503.020386,310.949524 
	C502.871460,313.974091 502.991058,317.011871 502.991058,321.310333 
	C504.286316,319.277924 504.720428,318.596741 505.154541,317.915588 
z"/>
<path fill="#5121F0" opacity="1.000000" stroke="none" 
	d="
M553.553406,338.104736 
	C557.479431,338.078094 560.962585,338.078094 564.447449,338.078094 
	C564.322876,346.494232 556.901855,351.672516 545.983093,350.929871 
	C537.491089,350.352234 529.513428,343.902283 531.074097,330.645630 
	C532.358337,319.737396 539.789612,314.508392 549.996216,315.246887 
	C561.042969,316.046082 567.616577,324.584106 565.459595,335.971497 
	C558.470520,335.971497 551.386353,335.971497 544.165344,335.971497 
	C545.819824,340.916077 547.812988,341.305450 553.553406,338.104736 
z"/>
<path fill="#5121F0" opacity="1.000000" stroke="none" 
	d="
M509.701904,368.260925 
	C515.483032,372.759644 517.039001,382.447144 513.963745,389.030518 
	C510.494568,396.457214 503.526001,399.849152 493.384827,398.952362 
	C487.462097,398.428589 481.213135,393.027588 479.402435,386.867218 
	C477.227356,379.467163 480.377014,370.228973 486.424164,366.271912 
	C493.921295,361.365967 502.133514,361.984161 509.701904,368.260925 
M498.879974,375.409698 
	C497.040283,376.022339 493.957520,376.238831 493.610687,377.327209 
	C492.801636,379.865906 492.940430,382.902618 493.510254,385.563049 
	C493.677155,386.342255 496.741058,387.170685 498.190277,386.813293 
	C499.583008,386.469788 501.628571,384.575623 501.579590,383.440887 
	C501.470947,380.924500 500.229462,378.456970 498.879974,375.409698 
z"/>
<path fill="#5121F0" opacity="1.000000" stroke="none" 
	d="
M656.321777,390.051392 
	C650.469238,399.455627 638.885071,401.873077 628.961609,395.965424 
	C621.198975,391.344147 619.875854,379.949677 624.112915,371.932007 
	C628.329895,363.952423 640.166016,360.785309 648.546753,365.285278 
	C658.067261,370.397217 660.097656,378.483948 656.321777,390.051392 
M645.005859,381.462830 
	C643.540710,374.879761 640.673401,372.737946 637.656067,376.144257 
	C636.073914,377.930328 635.425232,381.103302 635.542542,383.594055 
	C635.599487,384.804352 638.237183,386.460693 639.966431,386.905762 
	C643.497009,387.814423 644.277649,384.909698 645.005859,381.462830 
z"/>
<path fill="#5220F3" opacity="1.000000" stroke="none" 
	d="
M674.814331,383.093384 
	C675.029236,386.119354 676.204590,388.393066 679.665527,387.951691 
	C682.955811,387.532104 684.290649,385.540619 684.058411,382.059753 
	C683.759705,377.582916 684.153809,373.062744 683.932190,368.576904 
	C683.756226,365.013000 685.230408,363.665924 688.628113,364.067749 
	C688.792053,364.087128 688.960876,364.066284 689.127380,364.063568 
	C698.026978,363.919128 698.029480,363.919098 698.027649,373.001801 
	C698.026306,379.663666 697.753113,386.339294 698.098511,392.982910 
	C698.356140,397.939575 696.388672,399.719238 691.733093,398.904785 
	C689.027649,398.431458 685.620667,400.470734 683.669739,396.728271 
	C683.573486,396.543610 681.194153,397.433716 679.948120,397.982727 
	C672.052185,401.462158 663.158081,396.430725 662.221191,387.091064 
	C662.618530,380.937012 663.052979,375.493988 662.933167,370.063232 
	C662.846680,366.147675 664.259644,364.828400 668.129639,364.851959 
	C671.798645,364.874329 673.208862,366.159485 673.030640,369.810425 
	C672.828979,373.942352 672.951843,378.093079 673.071777,382.231628 
	C673.080566,382.535461 674.207336,382.806915 674.814331,383.093384 
z"/>
<path fill="#5121F0" opacity="1.000000" stroke="none" 
	d="
M714.027649,364.172089 
	C714.899292,364.780884 715.770935,365.389618 716.863770,366.152863 
	C724.386230,361.722107 730.841736,362.109650 735.628357,368.380585 
	C737.471191,370.794983 738.606873,374.249115 738.811157,377.313110 
	C739.273682,384.249725 738.956726,391.238312 738.956726,398.564819 
	C734.680603,398.564819 730.764343,398.564819 726.021057,398.564819 
	C726.021057,392.832886 726.349060,386.886749 725.846008,381.011719 
	C725.666199,378.911072 723.906311,375.928070 722.114136,375.198334 
	C718.554871,373.749023 716.162659,376.131836 716.027649,380.578552 
	C715.871094,385.734619 715.952271,390.897949 715.425842,396.503418 
	C713.762329,396.956177 712.603271,396.974274 711.444275,396.969360 
	C704.980530,396.941895 704.979553,396.940002 704.973572,390.290955 
	C704.968872,384.992004 704.972595,379.693054 704.962463,374.394104 
	C704.946472,366.053802 704.943359,366.056671 713.130371,364.586578 
	C713.444153,364.530182 713.729187,364.313873 714.027649,364.172089 
z"/>
<path fill="#5121F0" opacity="1.000000" stroke="none" 
	d="
M651.981934,340.896881 
	C647.812134,333.937164 649.766479,327.674591 653.636230,322.095856 
	C657.473694,316.563751 663.604309,314.379211 670.092773,315.239502 
	C678.045654,316.293976 683.222778,321.072449 685.134766,330.052368 
	C679.640137,328.825165 674.031494,332.635986 669.330383,327.353790 
	C668.852966,326.817291 665.755066,327.563782 664.943604,328.574402 
	C662.688599,331.383087 663.933228,337.347748 667.177063,340.217896 
	C672.151184,335.123871 678.212830,335.232422 684.607483,336.659576 
	C683.864502,345.078979 677.261047,350.231018 671.567993,350.846771 
	C663.618958,351.706512 657.064148,350.877075 651.981934,340.896881 
z"/>
<path fill="#5121F0" opacity="1.000000" stroke="none" 
	d="
M796.066895,385.933838 
	C794.628967,385.280243 793.239746,384.470825 791.743774,384.002686 
	C787.482483,382.669098 784.293335,380.249054 784.064941,375.528809 
	C783.840454,370.888977 786.164551,367.576874 790.278503,365.275391 
	C797.232971,361.384735 807.013062,363.008209 810.439819,368.068909 
	C812.015564,370.395935 812.700317,373.326355 814.079224,376.690887 
	C809.861877,376.690887 807.151855,376.690887 804.441833,376.690887 
	C813.037537,380.721344 814.193115,382.521667 812.968750,391.756714 
	C812.436035,395.774384 809.329163,397.093689 805.803467,398.101440 
	C797.281494,400.537323 789.804688,398.670715 784.978027,392.320282 
	C783.978882,391.005707 783.768066,389.092072 783.193970,387.454529 
	C784.682861,386.972198 786.147522,386.202209 787.666199,386.074707 
	C789.968018,385.881531 792.307251,386.135010 795.216309,386.723145 
	C797.690552,387.977417 799.579102,388.707306 801.467590,389.437195 
	C801.689697,388.698853 801.911804,387.960510 802.133850,387.222198 
	C800.111572,386.792725 798.089233,386.363281 796.066895,385.933838 
z"/>
<path fill="#5121F0" opacity="1.000000" stroke="none" 
	d="
M633.863831,316.882935 
	C637.416504,316.645416 640.975952,316.202820 644.516724,316.321136 
	C645.353882,316.349121 646.804260,318.249268 646.825134,319.310699 
	C647.007751,328.617218 646.891174,337.929077 646.953064,347.238800 
	C646.972046,350.088470 645.616333,351.069305 642.945618,350.925385 
	C640.131470,350.773712 637.309265,350.770172 634.299561,349.923035 
	C634.026978,338.390442 633.945435,327.636688 633.863831,316.882935 
z"/>
<path fill="#5220F3" opacity="1.000000" stroke="none" 
	d="
M742.043701,308.080750 
	C742.043701,308.080750 741.929749,308.530151 741.770264,308.867798 
	C741.495544,309.526550 741.564697,309.799377 741.818298,310.023865 
	C741.848755,311.405182 741.879211,312.786530 741.693848,314.913513 
	C741.593201,318.112823 741.708496,320.566498 741.823792,323.020142 
	C741.854797,324.727539 741.885742,326.434906 741.688354,328.933594 
	C741.330017,334.690247 740.994629,339.661255 741.132751,344.619141 
	C741.250244,348.840546 738.768616,348.883759 735.676025,349.010406 
	C732.265320,349.150055 730.908142,348.009399 730.976807,344.473785 
	C731.147766,335.680145 730.948181,326.879974 731.041199,318.083923 
	C731.177246,305.220581 729.225464,307.177612 742.052734,306.959808 
	C742.052734,306.959808 742.005798,307.002930 742.011353,307.259186 
	C742.025879,307.703888 742.034790,307.892303 742.043701,308.080750 
z"/>
<path fill="#BAD164" opacity="1.000000" stroke="none" 
	d="
M260.897339,306.206299 
	C267.053802,299.118744 273.169464,292.416779 279.150269,285.862640 
	C285.045074,288.437622 285.485107,292.068909 281.517914,296.120819 
	C277.049225,300.684875 273.330292,306.002258 268.715424,310.393005 
	C267.220734,311.815125 263.928497,311.347961 261.458496,311.744995 
	C261.257843,310.027313 261.057190,308.309601 260.897339,306.206299 
z"/>
<path fill="#5121F0" opacity="1.000000" stroke="none" 
	d="
M647.348083,309.177795 
	C645.545471,313.695129 642.081299,314.922485 638.348877,313.750916 
	C636.265564,313.096985 634.067627,310.826172 633.199951,308.749664 
	C631.920715,305.688690 633.743896,303.065369 636.474670,301.229401 
	C639.422058,299.247711 642.420959,299.729492 644.510498,302.083527 
	C646.087036,303.859589 646.603821,306.576263 647.348083,309.177795 
z"/>
<path fill="#4A26BC" opacity="1.000000" stroke="none" 
	d="
M505.119812,317.463074 
	C504.720428,318.596741 504.286316,319.277924 502.991058,321.310333 
	C502.991058,317.011871 502.871460,313.974091 503.020386,310.949524 
	C503.220856,306.877930 500.560608,306.999512 497.737549,306.953888 
	C494.870728,306.907562 492.932495,307.403534 492.971222,310.981201 
	C493.093750,322.308014 493.102814,333.637939 492.973145,344.964569 
	C492.931946,348.564301 494.864624,349.037354 497.725708,348.967468 
	C500.518311,348.899231 503.135284,349.085510 503.023529,344.977631 
	C502.892578,340.164490 503.127930,335.341278 503.222076,330.522736 
	C503.224213,330.413208 503.470001,330.197266 503.546356,330.219818 
	C503.854309,330.310730 504.140350,330.475830 504.645477,330.775665 
	C504.912964,336.356384 504.927490,341.775879 505.043793,347.193146 
	C505.101410,349.875397 503.973511,351.279938 501.245148,351.008667 
	C497.851959,350.671295 494.472443,350.196991 491.315186,348.991638 
	C491.684235,338.416504 491.903809,328.631683 491.921814,318.846497 
	C491.927826,315.579712 491.418304,312.311981 491.144440,309.044678 
	C490.585358,306.358154 491.568268,304.899750 494.421051,304.929382 
	C494.586121,304.931122 494.751434,304.918610 494.916321,304.923370 
	C505.041138,305.215149 505.131927,302.562408 505.119812,317.463074 
z"/>
<path fill="#4A26BC" opacity="1.000000" stroke="none" 
	d="
M741.808044,306.606171 
	C729.225464,307.177612 731.177246,305.220581 731.041199,318.083923 
	C730.948181,326.879974 731.147766,335.680145 730.976807,344.473785 
	C730.908142,348.009399 732.265320,349.150055 735.676025,349.010406 
	C738.768616,348.883759 741.250244,348.840546 741.132751,344.619141 
	C740.994629,339.661255 741.330017,334.690247 741.643616,329.358368 
	C742.217529,335.209167 742.698059,341.423462 742.910278,347.646881 
	C742.946106,348.695221 741.800049,350.716644 741.238892,350.702881 
	C737.261169,350.605560 733.293579,350.094971 729.433411,348.956177 
	C729.658997,334.213104 729.773926,320.229950 729.888794,306.246765 
	C733.780334,306.248688 737.671814,306.250610 741.808044,306.606171 
z"/>
<path fill="#4A26BC" opacity="1.000000" stroke="none" 
	d="
M674.883972,382.623657 
	C674.207336,382.806915 673.080566,382.535461 673.071777,382.231628 
	C672.951843,378.093079 672.828979,373.942352 673.030640,369.810425 
	C673.208862,366.159485 671.798645,364.874329 668.129639,364.851959 
	C664.259644,364.828400 662.846680,366.147675 662.933167,370.063232 
	C663.052979,375.493988 662.618530,380.937012 662.164246,386.705200 
	C661.616211,380.056152 661.270691,373.077850 661.123596,366.095367 
	C661.109741,365.438995 662.241821,364.552429 663.033508,364.148224 
	C663.704529,363.805664 664.652649,363.998077 665.478699,363.968323 
	C674.998352,363.625092 675.001282,363.625854 674.993042,373.218414 
	C674.990479,376.196899 674.967346,379.175415 674.883972,382.623657 
z"/>
<path fill="#4A26BC" opacity="1.000000" stroke="none" 
	d="
M594.845642,364.571198 
	C584.087036,365.167786 584.922363,363.336945 584.912354,374.997986 
	C584.903320,385.450287 585.213928,395.913544 584.816162,406.350342 
	C584.614990,411.628662 586.238342,413.752045 591.498596,413.009369 
	C592.420837,412.879181 593.424500,413.325928 594.684753,413.791687 
	C591.408691,414.366577 587.839661,414.765686 584.266785,414.802582 
	C583.834656,414.807037 583.382324,412.855072 583.265503,411.050232 
	C583.760620,405.214142 584.107605,400.135773 584.052795,395.061768 
	C583.987610,389.019226 583.577759,382.980408 583.214355,376.643066 
	C582.995667,376.171692 582.879822,375.997192 582.763916,375.822693 
	C582.763916,375.822693 582.888611,375.360779 583.231567,374.841492 
	C583.417725,371.232117 583.260925,368.142059 583.104187,365.051971 
	C586.930298,364.779816 590.756409,364.507629 594.845642,364.571198 
z"/>
<path fill="#4A26BC" opacity="1.000000" stroke="none" 
	d="
M713.579041,364.086853 
	C713.729187,364.313873 713.444153,364.530182 713.130371,364.586578 
	C704.943359,366.056671 704.946472,366.053802 704.962463,374.394104 
	C704.972595,379.693054 704.968872,384.992004 704.973572,390.290955 
	C704.979553,396.940002 704.980530,396.941895 711.444275,396.969360 
	C712.603271,396.974274 713.762329,396.956177 715.368835,396.967865 
	C715.776062,397.473633 715.720154,398.387329 715.697754,398.386505 
	C711.492493,398.231995 707.289551,398.012543 703.325439,397.010376 
	C703.711243,390.756775 704.022949,385.286163 703.955994,379.820221 
	C703.895691,374.890686 703.420715,369.966187 703.128662,365.039490 
	C706.462585,364.693542 709.796509,364.347595 713.579041,364.086853 
z"/>
<path fill="#5121F0" opacity="1.000000" stroke="none" 
	d="
M729.549805,306.472107 
	C729.773926,320.229950 729.658997,334.213104 729.363098,348.556885 
	C729.191650,334.844116 729.201172,320.770752 729.549805,306.472107 
z"/>
<path fill="#5121F0" opacity="1.000000" stroke="none" 
	d="
M491.090759,309.508392 
	C491.418304,312.311981 491.927826,315.579712 491.921814,318.846497 
	C491.903809,328.631683 491.684235,338.416504 491.359009,348.561035 
	C491.128845,335.937805 491.082977,322.954956 491.090759,309.508392 
z"/>
<path fill="#78CCD2" opacity="1.000000" stroke="none" 
	d="
M518.641418,364.153717 
	C519.089600,375.126221 519.086670,386.146179 518.985291,397.632416 
	C518.552673,397.608063 517.925232,397.116180 517.927307,396.627014 
	C517.972961,385.818237 518.088257,375.009735 518.641418,364.153717 
z"/>
<path fill="#78CCD2" opacity="1.000000" stroke="none" 
	d="
M582.403015,376.074341 
	C582.879822,375.997192 582.995667,376.171692 583.173584,377.113098 
	C583.107727,388.638397 582.979797,399.396820 582.851868,410.155243 
	C582.525879,409.483124 581.916504,408.811127 581.916199,408.138885 
	C581.911926,397.534607 581.986023,386.930267 582.403015,376.074341 
z"/>
<path fill="#5220F3" opacity="1.000000" stroke="none" 
	d="
M582.915405,410.349792 
	C582.979797,399.396820 583.107727,388.638397 583.276428,377.409973 
	C583.577759,382.980408 583.987610,389.019226 584.052795,395.061768 
	C584.107605,400.135773 583.760620,405.214142 583.338562,410.614990 
	C583.085571,410.939453 582.978943,410.544342 582.915405,410.349792 
z"/>
<path fill="#78CCD2" opacity="1.000000" stroke="none" 
	d="
M633.470215,317.088196 
	C633.945435,327.636688 634.026978,338.390442 634.013245,349.609680 
	C633.570068,349.433929 632.919495,348.792603 632.919678,348.151459 
	C632.922974,337.865448 633.009216,327.579468 633.470215,317.088196 
z"/>
<path fill="#5121F0" opacity="1.000000" stroke="none" 
	d="
M703.081177,365.504028 
	C703.420715,369.966187 703.895691,374.890686 703.955994,379.820221 
	C704.022949,385.286163 703.711243,390.756775 703.365784,396.580505 
	C703.122681,386.613312 703.078186,376.290924 703.081177,365.504028 
z"/>
<path fill="#78CCD2" opacity="1.000000" stroke="none" 
	d="
M779.990479,389.678772 
	C779.528015,388.963348 778.880737,387.780029 778.883789,386.598389 
	C778.906189,377.850922 779.058105,369.103760 779.550598,360.133850 
	C779.990051,369.678040 780.048340,379.444855 779.990479,389.678772 
z"/>
<path fill="#5220F3" opacity="1.000000" stroke="none" 
	d="
M583.053772,365.498657 
	C583.260925,368.142059 583.417725,371.232117 583.318726,374.618713 
	C583.043091,371.925262 583.023254,368.935303 583.053772,365.498657 
z"/>
<path fill="#4A26BC" opacity="1.000000" stroke="none" 
	d="
M741.911987,322.580902 
	C741.708496,320.566498 741.593201,318.112823 741.650513,315.326172 
	C741.882202,317.376007 741.941162,319.758850 741.911987,322.580902 
z"/>
<path fill="#4A26BC" opacity="1.000000" stroke="none" 
	d="
M741.885315,309.762878 
	C741.564697,309.799377 741.495544,309.526550 741.714294,309.092743 
	C741.862671,309.154022 741.907532,309.327972 741.885315,309.762878 
z"/>
<path fill="#4A26BC" opacity="1.000000" stroke="none" 
	d="
M742.289001,307.999817 
	C742.034790,307.892303 742.025879,307.703888 742.027893,307.232452 
	C742.203979,307.272614 742.369141,307.595734 742.289001,307.999817 
z"/>
<path fill="#000000" opacity="1.000000" stroke="none" 
	d="
M318.216583,278.997284 
	C309.005920,275.837677 306.175568,268.082855 311.106018,260.625305 
	C313.093506,257.619141 321.915131,256.172791 325.091064,258.747528 
	C328.649689,261.632507 330.836578,265.680542 329.874969,270.315430 
	C329.027405,274.400665 326.782288,277.819550 321.769836,278.004486 
	C320.709900,278.043579 319.670929,278.652496 318.216583,278.997284 
z"/>
<path fill="#000000" opacity="1.000000" stroke="none" 
	d="
M246.952454,341.796265 
	C242.899979,345.411743 238.165466,345.369568 236.026932,341.827881 
	C234.012131,338.491089 234.106430,334.776764 237.902283,333.100067 
	C240.178482,332.094635 243.823669,332.124146 245.937363,333.314850 
	C248.867798,334.965576 248.817261,338.382568 246.952454,341.796265 
z"/>
<path fill="#000000" opacity="1.000000" stroke="none" 
	d="
M310.813080,388.371399 
	C310.909241,390.669281 310.942596,392.773285 310.321381,394.661957 
	C310.208099,395.006317 306.941223,395.015778 306.009857,394.188904 
	C305.099121,393.380371 304.609558,390.400330 305.170959,389.964081 
	C306.584381,388.865845 308.694580,388.664459 310.813080,388.371399 
z"/>
<path fill="#000000" opacity="1.000000" stroke="none" 
	d="
M765.009766,377.145447 
	C766.955627,383.410553 766.012634,386.790466 762.144287,386.852783 
	C760.184204,386.884338 756.773438,385.651276 756.517456,384.455109 
	C755.960022,381.850708 756.278992,378.410492 757.706970,376.308868 
	C758.397888,375.291992 762.400452,376.525238 765.009766,377.145447 
z"/>
<path fill="#000000" opacity="1.000000" stroke="none" 
	d="
M596.582275,377.844025 
	C598.565308,374.488220 602.142883,373.805359 603.730591,375.727386 
	C605.463379,377.825043 605.744690,381.683441 605.399292,384.626556 
	C605.280884,385.636078 601.109131,387.227295 599.229553,386.764465 
	C594.541870,385.610260 596.009521,381.506348 596.582275,377.844025 
z"/>
<path fill="#000000" opacity="1.000000" stroke="none" 
	d="
M700.007019,333.134644 
	C700.296021,328.706726 702.488037,326.496704 706.447876,327.094116 
	C710.402161,327.690704 711.010071,331.466492 710.664551,334.315308 
	C710.245422,337.770477 707.781921,340.000366 703.654358,339.023651 
	C700.632996,338.308716 699.706604,336.385468 700.007019,333.134644 
z"/>
<path fill="#000000" opacity="1.000000" stroke="none" 
	d="
M499.164917,375.689636 
	C500.229462,378.456970 501.470947,380.924500 501.579590,383.440887 
	C501.628571,384.575623 499.583008,386.469788 498.190277,386.813293 
	C496.741058,387.170685 493.677155,386.342255 493.510254,385.563049 
	C492.940430,382.902618 492.801636,379.865906 493.610687,377.327209 
	C493.957520,376.238831 497.040283,376.022339 499.164917,375.689636 
z"/>
<path fill="#000000" opacity="1.000000" stroke="none" 
	d="
M645.000610,381.879700 
	C644.277649,384.909698 643.497009,387.814423 639.966431,386.905762 
	C638.237183,386.460693 635.599487,384.804352 635.542542,383.594055 
	C635.425232,381.103302 636.073914,377.930328 637.656067,376.144257 
	C640.673401,372.737946 643.540710,374.879761 645.000610,381.879700 
z"/>
<path fill="#000000" opacity="1.000000" stroke="none" 
	d="
M795.877808,386.121643 
	C798.089233,386.363281 800.111572,386.792725 802.133850,387.222198 
	C801.911804,387.960510 801.689697,388.698853 801.467590,389.437195 
	C799.579102,388.707306 797.690552,387.977417 795.562744,386.972656 
	C795.445190,386.568329 795.566895,386.438873 795.877808,386.121643 
z"/>
</svg>